<?xml version="1.0" encoding="UTF-8" standalone="no"?>
<!DOCTYPE svg PUBLIC "-//W3C//DTD SVG 1.1//EN" "http://www.w3.org/Graphics/SVG/1.1/DTD/svg11.dtd">
<!-- Created with Vectornator (http://vectornator.io/) -->
<svg height="100%" stroke-miterlimit="10" style="fill-rule:nonzero;clip-rule:evenodd;stroke-linecap:round;stroke-linejoin:round;" version="1.1" viewBox="0 0 128 128" width="100%" xml:space="preserve" xmlns="http://www.w3.org/2000/svg" xmlns:vectornator="http://vectornator.io" xmlns:xlink="http://www.w3.org/1999/xlink">
<defs>
<clipPath id="TextBounds">
<rect height="19.45" width="60.9922" x="34.9972" y="24.2409"/>
</clipPath>
<clipPath id="TextBounds_2">
<rect height="8.18" width="42.468" x="43.2418" y="41.1338"/>
</clipPath>
</defs>
<g id="Untitled" vectornator:layerName="Untitled">
<g opacity="1">
<g opacity="1">
<path d="M115.049 57.6657L101.195 57.6657L93.6272 39.9339C93.4543 39.5287 93.0548 39.2659 92.6073 39.2648C92.1654 39.2648 91.7649 39.5254 91.5908 39.9273L81.6507 62.7839L74.4255 51.6554C74.2224 51.3429 73.8743 51.153 73.4938 51.1519C73.12 51.1519 72.7707 51.3385 72.5665 51.6499L64.3973 64.0791L56.227 51.6488C56.0228 51.3385 55.6735 51.1508 55.2953 51.1508C54.9192 51.1519 54.5699 51.3407 54.3669 51.6543L47.1439 62.7828L37.2027 39.9262C37.0287 39.5243 36.6281 39.2637 36.1817 39.2637C35.7387 39.2648 35.3381 39.5287 35.1652 39.9328L27.5963 57.6646L13.744 57.6646C13.1325 57.6646 12.636 58.1549 12.636 58.76C12.636 59.3652 13.1314 59.8576 13.744 59.8576L28.3328 59.8576C28.778 59.8576 29.1797 59.5926 29.3538 59.1863L36.1962 43.1528L45.9343 65.5411C46.095 65.9144 46.4521 66.1672 46.8594 66.2015C47.2667 66.2346 47.6606 66.0425 47.8826 65.7013L55.3053 54.2636L63.0839 66.0977C60.5911 69.5661 54.9092 77.8357 54.7139 81.3847C54.5923 83.5567 55.3577 85.657 56.8686 87.2924C59.0936 89.7018 62.8719 90.6161 66.0599 90.1634C66.9683 90.0342 67.9904 89.8188 68.8328 89.4489C69.9275 88.9675 71.1159 88.1724 71.9271 87.2935C73.438 85.6592 74.2024 83.5578 74.0818 81.3858C73.8855 77.8368 68.2046 69.5672 65.7107 66.0988L73.4904 54.2647L80.9131 65.7024C81.133 66.0447 81.528 66.2357 81.9353 66.2026C82.3437 66.1694 82.6996 65.9155 82.8603 65.5422L92.5984 43.1539L99.4431 59.1874C99.6149 59.5937 100.017 59.8587 100.463 59.8587L115.051 59.8587C115.662 59.8587 116.158 59.3674 116.158 58.7611C116.158 58.1549 115.661 57.6657 115.049 57.6657ZM71.8702 81.5051C71.9573 83.0852 71.3971 84.6168 70.2913 85.8138C68.122 88.1614 63.8372 88.7356 60.956 87.4801C60.1057 87.1091 59.1327 86.4962 58.5022 85.8138C57.3964 84.6168 56.8363 83.0841 56.9233 81.5051C57.046 79.2889 60.6067 73.4 64.4062 68.0687C68.1868 73.4 71.7475 79.2889 71.8702 81.5051Z" fill="#000000" fill-rule="nonzero" opacity="1" stroke="none"/>
<path d="M63.0092 85.3058C63.0003 85.3058 62.9902 85.3058 62.9824 85.3047C61.9301 85.2683 60.9303 84.82 60.2396 84.0713C59.5835 83.3613 59.251 82.4492 59.3034 81.5029C59.3268 81.0755 59.6895 80.7431 60.1269 80.773C60.5588 80.7961 60.8891 81.1616 60.8656 81.5879C60.8366 82.1157 61.0241 82.6259 61.3945 83.0278C61.8085 83.4761 62.3932 83.7367 63.0371 83.7588C63.4689 83.7743 63.8059 84.132 63.7914 84.5594C63.7769 84.9779 63.4287 85.3058 63.0092 85.3058Z" fill="#000000" fill-rule="nonzero" opacity="1" stroke="none"/>
</g>
</g>
<g fill="#000000" opacity="1" stroke="none">
<path clip-path="url(#TextBounds)" d="M51.7759 38.5059L54.0259 38.5059L50.8759 25.7409L48.4309 25.7409L45.1609 38.5059L47.4259 38.5059L47.8909 36.5559L51.3259 36.5559L51.7759 38.5059ZM49.5859 29.4459L49.7059 29.4459L50.8909 34.6659L48.3409 34.6659L49.5859 29.4459Z"/>
<path clip-path="url(#TextBounds)" d="M59.2159 25.7409C57.1759 25.7409 55.5109 27.4059 55.5109 29.4609L55.5109 34.8009C55.5109 36.8409 57.1759 38.5059 59.2159 38.5059L60.6859 38.5059C61.4959 38.5059 62.2459 38.2359 62.8459 37.8009L63.4159 38.5059L65.6059 38.5059L63.9859 36.4659C64.2259 35.9709 64.3759 35.4009 64.3759 34.8009L64.3759 29.4609C64.3759 27.4059 62.7409 25.7409 60.6859 25.7409L59.2159 25.7409ZM61.1509 32.8809L58.9009 32.8809L61.4359 36.0459C61.2259 36.1959 60.9709 36.2859 60.6709 36.2859L59.2309 36.2859C58.3609 36.2859 57.8059 35.5509 57.8059 34.6659L57.8059 29.5809C57.8059 28.6959 58.3609 27.9609 59.2309 27.9609L60.6709 27.9609C61.5259 27.9609 62.0809 28.6959 62.0809 29.5809L62.0809 34.0659L61.1509 32.8809Z"/>
<path clip-path="url(#TextBounds)" d="M75.5509 25.7409L73.2559 25.7409L73.2559 34.6659C73.2559 35.5509 72.5509 36.2859 71.6809 36.2859L70.5709 36.2859C69.7009 36.2859 68.9959 35.5509 68.9959 34.6659L68.9959 25.7409L66.6859 25.7409L66.6859 34.8009C66.6859 36.8409 68.3659 38.5059 70.4059 38.5059L71.8609 38.5059C73.9159 38.5059 75.5509 36.8409 75.5509 34.8009L75.5509 25.7409Z"/>
<path clip-path="url(#TextBounds)" d="M83.4259 38.5059L85.6759 38.5059L82.5259 25.7409L80.0809 25.7409L76.8109 38.5059L79.0759 38.5059L79.5409 36.5559L82.9759 36.5559L83.4259 38.5059ZM81.2359 29.4459L81.3559 29.4459L82.5409 34.6659L79.9909 34.6659L81.2359 29.4459Z"/>
</g>
<g fill="#000000" opacity="1" stroke="none">
<path clip-path="url(#TextBounds_2)" d="M55.4458 43.8718C55.1518 43.8718 54.9718 43.6738 54.9718 43.4218C54.9718 42.9958 55.2838 42.9298 55.6738 42.9298L57.3958 42.9298L57.3958 41.9338L55.2838 41.9338C54.4798 41.9338 53.9518 42.6178 53.9518 43.3738C53.9518 44.4358 54.6178 44.8678 55.6378 44.8678L56.2438 44.8678C56.6218 44.8678 56.9158 45.0958 56.9158 45.4858C56.9158 45.8998 56.5798 46.0918 56.1718 46.0918L54.1138 46.0918L54.1138 47.0398L56.4418 47.0398C57.2758 47.0398 57.8458 46.3678 57.8458 45.4858C57.8458 44.5498 57.2158 43.8718 56.3638 43.8718L55.4458 43.8718Z"/>
<path clip-path="url(#TextBounds_2)" d="M59.4358 44.9098L61.9798 44.9098L61.9798 44.0578L59.4358 44.0578L59.4358 42.7978L61.9798 42.7978L61.9798 41.9338L58.4698 41.9338L58.4698 47.0398L61.9798 47.0398L61.9798 46.1758L59.4358 46.1758L59.4358 44.9098Z"/>
<path clip-path="url(#TextBounds_2)" d="M65.3878 47.0398L66.2818 47.0398L66.2818 41.9338L65.3878 41.9338L65.3878 45.3058L63.6538 41.9338L62.7418 41.9338L62.7418 47.0398L63.6538 47.0398L63.6538 43.6978L65.3878 47.0398Z"/>
<path clip-path="url(#TextBounds_2)" d="M68.3278 43.8718C68.0338 43.8718 67.8538 43.6738 67.8538 43.4218C67.8538 42.9958 68.1658 42.9298 68.5558 42.9298L70.2778 42.9298L70.2778 41.9338L68.1658 41.9338C67.3618 41.9338 66.8338 42.6178 66.8338 43.3738C66.8338 44.4358 67.4998 44.8678 68.5198 44.8678L69.1258 44.8678C69.5038 44.8678 69.7978 45.0958 69.7978 45.4858C69.7978 45.8998 69.4618 46.0918 69.0538 46.0918L66.9958 46.0918L66.9958 47.0398L69.3238 47.0398C70.1578 47.0398 70.7278 46.3678 70.7278 45.4858C70.7278 44.5498 70.0978 43.8718 69.2458 43.8718L68.3278 43.8718Z"/>
<path clip-path="url(#TextBounds_2)" d="M72.3178 44.9098L74.8618 44.9098L74.8618 44.0578L72.3178 44.0578L72.3178 42.7978L74.8618 42.7978L74.8618 41.9338L71.3518 41.9338L71.3518 47.0398L74.8618 47.0398L74.8618 46.1758L72.3178 46.1758L72.3178 44.9098Z"/>
</g>
</g>
</svg>
